<?xml version="1.0" standalone="no"?>
<!DOCTYPE svg PUBLIC "-//W3C//DTD SVG 20010904//EN"
 "http://www.w3.org/TR/2001/REC-SVG-20010904/DTD/svg10.dtd">
<svg version="1.0" xmlns="http://www.w3.org/2000/svg"
 width="547.000000pt" height="403.000000pt" viewBox="0 0 547.000000 403.000000"
 preserveAspectRatio="xMidYMid meet">

<g transform="translate(0.000000,403.000000) scale(0.100000,-0.100000)"
fill="#000000" stroke="none">
<path d="M2381 3623 c-59 -23 -65 -24 -76 -9 -21 27 -38 20 -32 -14 10 -50 1
-60 -58 -60 -39 0 -56 5 -70 20 -20 22 -60 27 -71 9 -4 -7 -21 -9 -46 -5 -45
7 -70 -3 -115 -50 -40 -40 -40 -44 -7 -44 22 0 24 -2 14 -15 -7 -8 -22 -14
-34 -14 -11 0 -42 -3 -68 -7 -31 -4 -61 -1 -91 9 -25 8 -48 13 -51 10 -3 -3
-2 -18 1 -34 5 -26 2 -31 -30 -44 -22 -9 -68 -15 -116 -15 -78 0 -79 0 -110
-36 -30 -34 -31 -38 -25 -98 7 -64 6 -64 -33 -107 -22 -24 -53 -66 -68 -93
-25 -43 -29 -62 -35 -170 -5 -90 -11 -130 -25 -156 -17 -30 -19 -58 -19 -205
0 -117 5 -195 16 -250 11 -51 19 -161 23 -305 3 -124 15 -306 25 -404 11 -99
20 -209 20 -246 0 -96 53 -232 135 -345 22 -30 42 -96 47 -150 4 -37 47 -57
80 -36 18 11 22 11 29 -2 13 -23 55 -29 93 -13 19 8 37 12 40 8 3 -3 6 0 6 6
0 7 7 12 15 12 21 0 19 16 -6 50 l-22 29 21 36 c19 31 21 47 17 131 -4 93 -4
96 -44 149 -24 32 -47 78 -57 114 -10 34 -21 61 -26 61 -12 0 -38 68 -41 107
-1 18 -6 33 -10 33 -5 0 -6 83 -3 185 4 121 3 192 -4 205 -6 12 -11 113 -11
254 -1 216 0 238 18 269 11 18 23 45 27 61 8 31 48 99 78 130 11 12 27 31 36
44 8 13 43 42 76 65 34 22 70 50 81 60 41 39 188 98 300 121 44 9 100 21 125
26 25 6 68 12 95 14 28 2 91 12 140 21 114 22 223 25 234 7 5 -9 29 -14 62
-15 33 0 90 -13 148 -34 52 -18 103 -33 114 -33 11 0 44 -18 72 -40 56 -43
184 -180 204 -217 21 -40 61 -167 61 -195 0 -15 5 -30 10 -33 6 -3 10 -15 10
-26 0 -11 11 -35 24 -52 23 -32 118 -275 137 -352 5 -22 18 -110 28 -196 15
-122 17 -164 8 -197 -10 -37 -7 -52 27 -152 75 -223 96 -247 115 -136 10 55 9
71 -5 106 -13 32 -14 47 -6 65 16 34 54 75 64 69 4 -3 8 1 8 8 0 10 3 9 10 -2
13 -21 22 -7 31 47 10 67 -7 144 -42 184 -16 19 -29 36 -30 39 -2 16 -11 242
-13 345 -2 96 -8 132 -26 180 -16 42 -23 84 -24 140 -1 54 -9 98 -23 135 -24
65 -32 88 -69 200 -15 47 -32 92 -38 101 -10 14 -92 110 -142 166 -24 26 -40
119 -23 139 10 13 8 14 -133 86 -85 43 -108 62 -144 123 -14 25 -30 45 -35 45
-17 0 -89 35 -89 43 0 4 7 10 15 13 26 10 17 22 -30 40 -39 14 -60 16 -143 8
-99 -8 -291 -8 -300 1 -3 2 1 11 7 19 22 26 8 47 -44 67 -67 25 -107 24 -184
-8z"/>
<path d="M3085 2269 c-38 -5 -101 -11 -140 -13 -76 -5 -89 -9 -152 -45 -42
-24 -71 -70 -58 -91 4 -6 0 -22 -9 -35 -22 -33 -20 -103 4 -159 23 -50 33 -55
61 -30 17 15 19 15 31 -10 9 -21 18 -26 37 -25 14 2 35 -2 45 -8 19 -10 19
-11 0 -36 -10 -15 -23 -27 -29 -27 -22 -3 162 -39 198 -40 41 0 107 23 107 39
0 5 13 12 29 16 41 9 72 47 82 101 5 26 16 55 24 64 8 9 15 28 15 43 0 33 -30
97 -46 97 -6 0 -18 7 -25 16 -11 14 -10 18 6 30 25 18 59 18 75 -1 12 -15 35
-11 25 5 -3 5 -7 23 -9 40 -2 17 -14 42 -26 56 -21 22 -31 24 -99 23 -42 -1
-107 -6 -146 -10z m23 -170 c32 -6 59 -20 78 -40 15 -16 24 -29 18 -30 -5 0
-62 -1 -128 -2 -90 -2 -120 1 -123 11 -8 18 25 51 61 61 42 12 39 12 94 0z
m-38 -233 c0 -2 -7 -6 -15 -10 -8 -3 -15 -1 -15 4 0 6 7 10 15 10 8 0 15 -2
15 -4z"/>
<path d="M1931 2249 c-25 -11 -65 -24 -88 -30 -66 -14 -132 -97 -133 -167 -3
-118 2 -202 11 -207 15 -10 49 30 49 58 0 13 7 46 15 74 13 44 24 58 78 98 34
25 71 47 82 49 11 3 45 9 75 16 51 10 56 9 73 -11 9 -12 17 -29 17 -39 0 -29
-59 -80 -93 -80 -25 0 -96 -59 -124 -102 -63 -98 -71 -140 -29 -159 13 -6 35
-34 50 -65 26 -53 27 -53 104 -77 80 -26 132 -25 221 2 33 10 166 95 178 113
5 9 -8 23 -30 31 -13 4 4 37 18 37 8 0 17 9 20 20 10 32 44 25 52 -10 4 -21
11 -30 25 -30 10 0 18 6 17 13 -1 6 0 19 4 27 12 33 14 73 5 110 -10 39 -70
110 -94 110 -6 0 -15 7 -18 15 -3 9 -36 29 -73 46 -83 37 -83 37 -58 55 20 15
19 16 -10 40 -16 14 -57 38 -91 55 -77 37 -183 41 -253 8z m268 -247 c19 -9
39 -24 44 -33 14 -22 1 -64 -20 -66 -92 -9 -183 -32 -206 -53 -15 -13 -48 1
-43 19 2 9 7 27 10 41 3 15 28 44 57 68 58 47 99 54 158 24z m108 -209 c4 -10
14 -24 22 -31 14 -11 14 -13 -4 -24 -11 -7 -38 -19 -60 -26 -22 -8 -47 -22
-57 -32 -20 -21 -107 -34 -142 -20 -33 12 -27 26 17 35 17 4 43 14 57 23 14 9
45 24 70 32 27 10 49 25 55 38 12 26 33 29 42 5z"/>
<path d="M2802 1386 c-55 -60 -99 -68 -150 -27 -21 16 -53 32 -72 34 -29 5
-38 1 -66 -29 -27 -28 -38 -33 -59 -28 -17 4 -25 2 -25 -7 0 -25 40 -79 65
-89 14 -5 28 -17 31 -25 18 -47 179 -65 249 -29 33 17 44 32 65 82 28 68 59
90 106 72 19 -8 26 -6 31 5 11 30 -61 85 -110 85 -16 0 -38 -15 -65 -44z"/>
<path d="M3160 1368 c0 -4 3 -8 8 -8 4 0 36 -26 70 -57 34 -32 82 -76 107 -98
25 -21 45 -44 45 -51 0 -6 7 -17 15 -24 8 -7 15 -22 15 -34 0 -11 5 -28 11
-36 9 -12 10 -12 5 4 -4 10 -2 24 4 31 11 13 -7 74 -37 126 -15 25 -120 109
-137 109 -4 0 -20 10 -36 22 -30 22 -70 31 -70 16z"/>
<path d="M3903 1205 c-25 -18 -31 -45 -9 -45 19 0 38 26 34 45 -3 14 -5 14
-25 0z"/>
<path d="M3280 1133 c0 -15 -57 -43 -88 -43 -17 0 -42 -4 -55 -9 -14 -5 -94
-12 -180 -14 -85 -3 -160 -7 -165 -11 -6 -3 -60 -6 -121 -7 -106 0 -201 -18
-257 -47 -89 -46 -101 -50 -127 -45 -27 5 -28 4 -25 -28 3 -31 9 -37 68 -66
73 -35 169 -68 188 -65 6 2 12 -2 12 -8 0 -18 22 -10 48 18 15 16 39 32 55 36
15 3 27 10 27 15 0 16 -35 17 -46 2 -10 -13 -15 -11 -38 14 -45 49 -29 68 37
40 12 -5 17 -3 17 8 0 22 24 39 37 26 8 -8 16 -4 29 13 17 23 22 24 67 16 40
-8 52 -6 68 8 14 13 28 15 64 9 31 -4 51 -2 61 5 21 18 64 -13 64 -46 0 -24 3
-26 28 -20 15 4 43 9 62 12 19 2 49 7 67 10 20 3 57 26 98 61 62 54 74 74 57
99 -9 14 -52 28 -52 17z"/>
<path d="M2155 1122 c-20 -14 -65 -101 -65 -125 0 -77 32 -74 47 5 7 33 16 64
21 67 10 7 22 61 13 61 -3 0 -11 -4 -16 -8z"/>
<path d="M3761 958 c-8 -18 -16 -54 -18 -80 -3 -38 -1 -48 11 -48 10 0 19 16
26 43 6 23 17 57 25 75 19 42 19 42 -8 42 -16 0 -27 -9 -36 -32z"/>
<path d="M2940 925 c0 -8 7 -15 15 -15 8 0 15 4 15 9 0 5 -7 11 -15 15 -9 3
-15 0 -15 -9z"/>
<path d="M3696 805 c-7 -27 -1 -45 15 -45 5 0 9 16 9 35 0 41 -15 47 -24 10z"/>
<path d="M3725 757 c-11 -7 -23 -16 -26 -20 -3 -5 -10 -8 -15 -8 -5 0 -9 -13
-9 -29 0 -26 -4 -30 -27 -30 -18 0 -29 -7 -33 -21 -6 -17 -9 -19 -16 -8 -7 11
-9 11 -9 -2 0 -34 13 -78 21 -73 5 3 7 10 4 15 -4 5 3 9 14 9 18 0 48 35 43
52 -1 4 5 19 13 35 8 15 15 26 16 23 0 -3 2 -68 3 -144 2 -123 5 -140 22 -153
53 -39 86 22 53 97 -21 46 -18 60 11 60 27 0 70 21 70 34 0 6 -9 17 -20 24
-17 10 -19 16 -9 33 9 18 7 25 -14 48 -14 14 -28 36 -32 49 -7 24 -29 27 -60
9z"/>
<path d="M1740 731 c0 -5 5 -13 10 -16 6 -3 10 -2 10 4 0 5 -4 13 -10 16 -5 3
-10 2 -10 -4z"/>
<path d="M2986 681 c-8 -13 -114 -20 -173 -12 -45 6 -53 5 -53 -8 1 -30 27
-65 51 -67 40 -5 123 -6 139 -1 52 14 70 28 70 52 0 16 6 25 16 25 8 0 12 5 9
10 -8 12 -52 13 -59 1z"/>
<path d="M2094 659 c-3 -6 -1 -16 5 -22 8 -8 11 -5 11 11 0 24 -5 28 -16 11z"/>
<path d="M1825 622 c-30 -6 -38 -18 -26 -39 6 -10 11 -12 11 -5 0 6 6 12 14
12 9 0 12 -7 9 -19 -2 -10 2 -25 10 -32 10 -10 12 -21 7 -35 -10 -26 8 -82 56
-177 19 -37 34 -82 34 -100 1 -28 9 -38 64 -78 58 -44 67 -47 132 -49 38 -2
85 -2 104 -1 l35 2 -26 22 c-14 12 -42 42 -61 67 -29 36 -37 56 -40 95 -2 36
1 49 10 47 6 -1 12 2 12 8 0 5 7 10 15 10 8 0 15 -6 15 -12 0 -9 4 -8 10 2 8
12 12 13 19 2 7 -11 9 -11 14 2 14 35 -8 51 -63 48 -8 0 -18 4 -21 10 -4 6
-18 12 -31 13 -12 1 -23 6 -22 11 2 15 -28 32 -47 27 -9 -3 -20 0 -23 6 -4 6
-20 11 -37 11 -22 0 -29 5 -29 20 0 19 -19 26 -59 21 -7 -2 -10 2 -7 7 3 5 -6
19 -20 31 -16 14 -23 28 -19 40 7 22 -13 39 -40 33z"/>
<path d="M2141 604 c0 -11 3 -14 6 -6 3 7 2 16 -1 19 -3 4 -6 -2 -5 -13z"/>
<path d="M2176 583 c-12 -12 -6 -23 14 -23 13 0 20 -7 20 -20 0 -11 4 -20 9
-20 5 0 17 -3 25 -6 13 -5 15 -2 9 12 -11 30 -65 69 -77 57z"/>
<path d="M1920 541 c0 -6 5 -13 10 -16 6 -3 10 1 10 9 0 9 -4 16 -10 16 -5 0
-10 -4 -10 -9z"/>
<path d="M3426 499 c-20 -17 -36 -38 -36 -48 0 -37 -74 -97 -101 -80 -31 19
-66 10 -93 -26 -21 -27 -34 -35 -59 -35 -18 0 -45 -7 -61 -15 -36 -19 -60 -19
-76 0 -16 19 -40 19 -40 1 0 -22 -19 -30 -35 -16 -8 7 -15 9 -15 6 0 -4 -15 5
-34 19 -34 26 -35 26 -45 6 -14 -25 -44 -35 -86 -27 -30 6 -33 10 -40 52 -3
25 -13 48 -20 51 -8 3 -34 -4 -58 -16 -24 -12 -49 -21 -56 -21 -8 0 -11 -6 -7
-15 12 -31 -5 -47 -41 -40 -24 4 -42 1 -60 -11 -15 -9 -44 -16 -69 -16 -24 1
-45 -2 -48 -6 -5 -8 49 -72 61 -72 12 -1 39 -42 46 -72 12 -48 75 -52 392 -25
341 29 433 46 555 103 58 27 117 57 130 66 25 19 28 41 18 138 -5 43 -3 57 10
68 15 12 12 13 -20 8 -30 -4 -38 -1 -43 14 -13 40 -31 43 -69 9z"/>
<path d="M1825 511 c-3 -5 -1 -12 5 -16 5 -3 10 1 10 9 0 18 -6 21 -15 7z"/>
<path d="M2720 339 c0 -11 4 -18 10 -14 5 3 7 12 3 20 -7 21 -13 19 -13 -6z"/>
</g>
</svg>
