<svg width="622" height="599" viewBox="0 0 622 599" fill="none" xmlns="http://www.w3.org/2000/svg">
<path d="M158.763 75.8962C155.164 78.4778 151.669 81.187 148.19 83.9157C144.298 86.1067 140.364 88.2335 136.664 90.8029C122.36 100.736 108.97 110.546 96.4768 122.883C90.9146 128.376 87.0547 134.817 82.529 141.102C76.998 148.784 68.8093 155.535 65.1815 164.378C62.6501 170.548 59.239 175.815 57.5102 182.335C54.2092 194.785 51.838 207.482 47.921 219.777C43.8392 232.589 36.876 245.808 35.586 259.353C34.8679 266.893 33.4682 274.307 33.0143 281.888C31.8597 301.17 29.6853 320.333 28.4813 339.597C27.35 357.698 28.4694 375.49 29.2223 393.557C29.478 399.696 31.3436 404.33 34.7578 409.641C41.6055 420.293 48.1215 431.144 54.8949 441.852C64.8722 457.625 75.1034 473.455 86.2775 488.403C90.9726 494.683 92.8648 501.166 99.4408 506.142C111.336 515.144 124.731 522.803 137.187 531.031C143.644 535.296 150.221 539.543 156.975 543.322C160.252 545.155 165.826 546.07 168.482 548.727C173.318 553.562 177.32 555.151 184.043 556.878C196.023 559.954 208.529 562.153 220.656 564.68C229.776 566.58 239.113 568.926 248.421 569.649C255.456 570.194 262.556 569.647 269.604 569.823C272.392 569.893 274.658 571.21 277.362 571.697C281.697 572.477 286.334 572.21 290.7 572.089C311.901 571.505 334.924 571.541 355.383 564.941C366.392 561.39 376.979 555.87 387.463 550.993C393.03 548.404 399.758 547.313 405.595 545.153C421.344 539.324 436.49 531.149 451.666 524.013C469.486 515.634 488.094 508.911 501.355 493.938C509.975 484.207 517.81 474.592 525.415 464.038C527.899 460.59 530.265 457.833 532.956 455.277C537.613 450.852 541.935 445.398 545.073 439.847C550.745 429.811 557.378 422.31 564.731 413.607C576.286 399.93 586.835 385.138 590.839 367.405L590.887 367.195C592.619 359.525 594.152 352.737 594.152 344.827C594.152 336.909 593.617 329.025 593.324 321.116C592.873 308.946 589.104 297.23 587.134 285.288C584.826 271.291 582.804 257.254 580.379 243.27C578.769 233.993 576.591 227.389 571.487 219.21C567.522 212.858 562.634 205.961 556.798 201.121C551.581 196.795 543.087 196.189 541.063 189.309C537.517 177.254 532.183 165.815 528.423 153.83C524.692 141.937 520.939 130.052 517.439 118.088C515.342 110.92 514.681 102.975 511.555 96.1641C506.857 85.9302 500.027 73.8365 490.807 66.9609C476.557 56.3337 453.412 56.8666 436.542 56.718C430.179 56.6619 424.89 57.8452 419.804 53.5797C414.696 49.2956 410.105 44.9512 404.331 41.4626C389.585 32.5536 369.611 33.6446 353.029 31.6119C326.104 28.3114 298.183 25.256 270.999 28.1686C260.844 29.2566 251.001 32.4265 241.796 36.7116C233.283 40.6744 223.998 42.7943 215.295 46.3443C195.441 54.4427 176.234 63.362 158.763 75.8962Z" fill="#1E1E1E"/>
<path d="M99.8766 122.621C109.919 117.098 118.042 108.077 127.336 101.438C131.436 98.5102 134.63 94.3901 138.669 91.326C145.4 86.2194 151.892 80.8252 158.763 75.8962C176.234 63.362 195.441 54.4427 215.295 46.3443C223.998 42.7943 233.283 40.6744 241.796 36.7116C251.001 32.4265 260.844 29.2566 270.999 28.1686C298.183 25.256 326.104 28.3114 353.029 31.6119C369.611 33.6446 389.585 32.5536 404.331 41.4626C410.105 44.9512 414.696 49.2956 419.804 53.5797C424.89 57.8452 430.179 56.6619 436.542 56.718C453.412 56.8666 476.557 56.3337 490.807 66.9609C500.027 73.8365 506.857 85.9302 511.555 96.1641C514.681 102.975 515.342 110.92 517.439 118.088C520.939 130.052 524.692 141.937 528.423 153.83C532.183 165.815 537.517 177.254 541.063 189.309C543.087 196.189 551.58 196.795 556.798 201.121C562.634 205.961 567.522 212.858 571.487 219.21C576.591 227.389 578.769 233.993 580.379 243.27C582.804 257.254 584.826 271.291 587.134 285.288C589.104 297.23 592.873 308.946 593.324 321.116C593.617 329.025 594.152 336.909 594.152 344.827C594.152 352.809 592.591 359.649 590.839 367.405C586.835 385.138 576.286 399.93 564.731 413.607C557.378 422.31 550.745 429.811 545.073 439.847C541.935 445.398 537.613 450.852 532.956 455.277C530.265 457.833 527.899 460.59 525.415 464.038C517.81 474.592 509.975 484.207 501.355 493.938C488.094 508.911 469.486 515.634 451.666 524.013C436.49 531.149 421.344 539.324 405.595 545.153C399.758 547.313 393.03 548.404 387.463 550.993C376.979 555.87 366.392 561.39 355.383 564.941C334.924 571.541 311.901 571.505 290.7 572.089C286.334 572.21 281.697 572.477 277.362 571.697C274.658 571.21 272.392 569.893 269.604 569.823C262.556 569.647 255.456 570.194 248.421 569.649C239.113 568.926 229.776 566.58 220.656 564.68C208.529 562.153 196.023 559.954 184.043 556.878C177.32 555.151 173.318 553.562 168.482 548.727C165.826 546.07 160.252 545.155 156.975 543.322C150.221 539.543 143.644 535.296 137.187 531.031C124.731 522.803 111.336 515.144 99.4408 506.142C92.8648 501.166 90.9726 494.683 86.2775 488.403C75.1034 473.455 64.8722 457.625 54.8949 441.852C48.1215 431.144 41.6055 420.293 34.7578 409.641C31.3436 404.33 29.478 399.696 29.2223 393.557C28.4694 375.49 27.35 357.698 28.4813 339.597C29.6853 320.333 31.8597 301.17 33.0143 281.888C33.4682 274.307 34.8679 266.893 35.586 259.353C36.876 245.808 43.8392 232.589 47.921 219.777C51.838 207.482 54.2092 194.785 57.5102 182.335C59.239 175.815 62.6501 170.548 65.1815 164.378C68.8093 155.535 76.998 148.784 82.529 141.102C87.0547 134.817 90.9146 128.376 96.4768 122.883C108.97 110.546 122.36 100.736 136.664 90.8029C142.745 86.5799 149.457 83.5527 155.581 79.4704" stroke="#E53935" stroke-width="23" stroke-linecap="round"/>
<path d="M87.9199 112.842C98.5274 107.017 107.107 97.5035 116.924 90.5022C121.254 87.4143 124.628 83.0693 128.894 79.8379C136.005 74.4526 142.861 68.7639 150.118 63.5658C168.573 50.3472 188.86 40.9409 209.831 32.4004C219.023 28.6566 228.831 26.421 237.822 22.2418C247.545 17.7228 257.942 14.3798 268.668 13.2324C297.382 10.1608 326.873 13.383 355.313 16.8637C372.828 19.0074 393.926 17.8568 409.501 27.2522C415.6 30.9312 420.449 35.5129 425.845 40.0309C431.217 44.5293 436.803 43.2814 443.524 43.3405C461.343 43.4972 485.79 42.9352 500.842 54.1426C510.58 61.3936 517.795 74.1476 522.756 84.9402C526.059 92.1228 526.757 100.502 528.972 108.061C532.668 120.679 536.633 133.212 540.573 145.754C544.545 158.394 550.18 170.457 553.925 183.171C556.062 190.426 565.034 191.065 570.545 195.628C576.709 200.731 581.872 208.005 586.06 214.704C591.451 223.329 593.752 230.294 595.452 240.077C598.014 254.825 600.149 269.629 602.588 284.389C604.668 296.983 608.649 309.339 609.125 322.174C609.435 330.514 610 338.829 610 347.179C610 355.597 608.351 362.81 606.501 370.99C602.272 389.691 591.129 405.29 578.924 419.715C571.158 428.893 564.152 436.803 558.16 447.386C554.846 453.241 550.281 458.993 545.361 463.659C542.52 466.354 540.02 469.263 537.397 472.898C529.363 484.029 521.087 494.168 511.983 504.431C497.976 520.221 478.321 527.312 459.499 536.148C443.469 543.673 427.471 552.294 410.836 558.442C404.671 560.72 397.564 561.871 391.684 564.601C380.61 569.744 369.427 575.565 357.799 579.31C336.189 586.271 311.871 586.232 289.478 586.849C284.866 586.976 279.968 587.258 275.39 586.435C272.534 585.922 270.14 584.532 267.195 584.459C259.751 584.273 252.251 584.85 244.82 584.275C234.988 583.513 225.127 581.038 215.493 579.035C202.684 576.37 189.475 574.051 176.821 570.807C169.72 568.986 165.492 567.31 160.385 562.211C157.579 559.409 151.691 558.444 148.231 556.511C141.096 552.525 134.15 548.046 127.329 543.548C114.172 534.872 100.024 526.795 87.4595 517.302C80.5137 512.053 78.515 505.216 73.5558 498.593C61.7531 482.83 50.9463 466.135 40.4079 449.501C33.2534 438.208 26.3708 426.765 19.138 415.532C15.5317 409.931 13.5612 405.043 13.291 398.57C12.4959 379.516 11.3134 360.753 12.5084 341.663C13.7801 321.348 16.0769 301.138 17.2964 280.804C17.7759 272.809 19.2542 264.991 20.0127 257.039C21.3753 242.754 28.7302 228.813 33.0417 215.301C37.179 202.335 39.6835 188.945 43.1702 175.816C44.9963 168.94 48.5993 163.385 51.273 156.878C55.105 147.552 63.7543 140.433 69.5965 132.332C74.3767 125.703 78.4538 118.91 84.3289 113.118C97.5247 100.107 111.668 89.762 126.777 79.2863C133.2 74.8327 140.289 71.6403 146.758 67.335" stroke="white" stroke-width="23" stroke-linecap="round"/>
<path d="M143.793 488.943C144.13 488.571 144.464 488.2 144.806 487.845C148.432 484.082 152.241 480.502 156.056 476.933C159.347 473.853 162.823 470.943 166.053 467.803C175.734 458.39 184.886 448.601 194.093 438.727C205.842 426.127 217.117 413.428 227.432 399.582C235.345 388.961 242.708 377.765 250.052 366.748C253.162 362.084 256.204 357.385 259.134 352.608C260.596 350.224 262.058 347.334 264.289 345.549C268.723 342.002 273.118 338.344 277.731 334.974C283.855 330.501 290.562 326.694 295.172 320.569C296.814 318.387 299.009 316.751 301.194 315.125C302.012 314.516 303.868 312.999 304.649 312.541C303.076 311 294.038 299.961 293.052 298.551C289.687 293.739 286.507 288.841 283.561 283.76C275.242 269.414 265.155 257.064 253.328 245.507C246.851 239.176 242.543 230.105 234.274 225.97C233.358 225.512 235.868 224.62 236.827 224.26C247.545 220.231 258.155 215.872 268.481 210.914C276.545 207.043 284.047 202.341 291.847 198.002C299.281 193.868 307.043 190.308 314.732 186.68C319.777 184.301 325.799 182.316 329.113 177.454C329.479 176.919 328.482 177.456 330.246 176.707C339.674 172.707 348.596 167.405 357.828 162.977C377.559 153.511 397.752 145.06 417.934 136.613L420.099 135.707C425.865 133.294 431.808 132.227 437.78 130.456C440.16 129.75 441.555 129.059 443.995 129.059C444.864 129.059 450.2 128.814 449.464 129.324C445.419 132.124 442.97 138.002 440.527 142.067C437.874 146.48 434.909 150.687 431.613 154.642C429.825 156.788 427.917 158.736 425.808 160.568C420.793 164.923 416.459 170.062 412.294 175.214C403.041 186.658 394.029 198.334 385.121 210.047C375.834 222.259 367.254 234.395 360.454 248.156C358.502 252.106 356.616 257.448 353.733 260.972C353.429 261.343 353.468 260.82 353.468 260.635C353.468 259.33 351.777 262.629 351.059 263.718C344.61 273.49 338.052 282.815 333.064 293.468C331.511 296.786 330.237 299.93 328.102 302.887C327.131 304.232 325.366 305.401 323.886 306.067C322.171 306.839 321.004 308.219 319.309 308.91C317.827 309.513 316.82 312.656 315.985 313.968C315.822 314.224 315.201 314.768 315.503 314.739C316.908 314.605 319.162 317.496 320.056 318.304C321.739 319.826 323.366 321.427 325.187 322.785C327.423 324.454 329.218 326.161 330.968 328.35C335.017 333.41 339.636 338.045 343.88 342.948C349.701 349.671 356.685 355.186 363.73 360.557C367.052 363.09 371.234 365.218 374.16 368.218C375.973 370.076 377.219 372.532 378.81 374.577C382.05 378.743 386.184 382.07 389.578 386.092C390.099 386.709 392.15 388.421 390.613 389.079C387.552 390.391 384.199 391.12 381.074 392.283C376.002 394.17 371.194 396.55 366.331 398.907C355.316 404.248 344.231 409.452 333.281 414.927C333.119 415.007 328.853 417.316 328.752 417.215C328.028 416.491 327.179 416.904 325.885 417.336C317.913 419.993 310.304 424.167 302.88 428.055C292.174 433.663 281.757 439.81 270.769 444.87C265.266 447.404 259.379 449.353 253.738 451.518C239.679 456.916 225.447 460.815 210.859 464.478C207.504 465.321 204.143 465.143 200.838 465.924C190.092 468.461 179.28 471.46 168.775 474.885C163.307 476.668 159.044 479.95 154.442 483.22C153.115 484.163 151.508 484.868 150.106 485.725C148.673 486.601 148.128 487.847 146.42 488.11C145.656 488.228 144.719 488.555 143.793 488.943Z" fill="#E53935"/>
<path d="M141 491.555C142.473 490.573 143.59 489.107 144.806 487.845C148.432 484.082 152.241 480.502 156.056 476.933C159.347 473.853 162.823 470.943 166.053 467.803C175.734 458.39 184.886 448.601 194.093 438.727C205.842 426.127 217.117 413.428 227.432 399.582C235.345 388.961 242.708 377.765 250.052 366.748C253.162 362.084 256.204 357.385 259.134 352.608C260.596 350.224 262.058 347.334 264.289 345.549C268.723 342.002 273.118 338.344 277.731 334.974C283.855 330.501 290.562 326.694 295.172 320.569C296.814 318.387 299.009 316.751 301.194 315.125C302.371 314.248 305.694 311.495 304.88 312.716C304.701 312.983 294.123 300.083 293.052 298.551C289.687 293.739 286.507 288.841 283.561 283.76C275.242 269.414 265.155 257.064 253.328 245.507C246.851 239.176 242.543 230.105 234.274 225.97C233.358 225.512 235.868 224.62 236.827 224.26C247.545 220.231 258.155 215.872 268.481 210.914C276.545 207.043 284.047 202.341 291.847 198.002C299.281 193.868 307.043 190.308 314.732 186.68C319.777 184.301 325.799 182.316 329.113 177.454C329.479 176.919 328.482 177.456 330.246 176.707C339.674 172.707 348.596 167.405 357.828 162.977C378.265 153.173 399.197 144.457 420.099 135.707C425.865 133.294 431.808 132.227 437.78 130.456C440.16 129.75 441.555 129.059 443.995 129.059C444.864 129.059 450.2 128.814 449.464 129.324C445.419 132.124 442.97 138.002 440.527 142.067C437.874 146.48 434.909 150.687 431.613 154.642C429.825 156.788 427.917 158.736 425.808 160.568C420.793 164.923 416.459 170.062 412.294 175.214C403.041 186.658 394.029 198.334 385.121 210.047C375.834 222.259 367.254 234.395 360.454 248.156C358.502 252.106 356.616 257.448 353.733 260.972C353.429 261.343 353.468 260.82 353.468 260.635C353.468 259.33 351.777 262.629 351.059 263.718C344.61 273.49 338.052 282.815 333.064 293.468C331.511 296.786 330.237 299.93 328.102 302.887C327.131 304.232 325.366 305.401 323.886 306.067C322.171 306.839 321.004 308.219 319.309 308.91C317.827 309.513 316.82 312.656 315.985 313.968C315.822 314.224 315.201 314.768 315.503 314.739C316.908 314.605 319.162 317.496 320.056 318.304C321.739 319.826 323.366 321.427 325.187 322.785C327.423 324.454 329.218 326.161 330.968 328.35C335.017 333.41 339.636 338.045 343.88 342.948C349.7 349.671 356.685 355.186 363.73 360.557C367.052 363.09 371.234 365.218 374.16 368.218C375.973 370.076 377.219 372.532 378.81 374.577C382.05 378.743 386.184 382.07 389.578 386.092C390.099 386.709 392.15 388.421 390.613 389.079C387.552 390.391 384.199 391.12 381.074 392.283C376.002 394.17 371.194 396.55 366.331 398.907C355.316 404.248 344.231 409.452 333.281 414.927C333.119 415.007 328.853 417.316 328.752 417.215C328.028 416.491 327.179 416.904 325.885 417.336C317.913 419.993 310.304 424.167 302.88 428.055C292.174 433.663 281.757 439.81 270.769 444.87C265.266 447.404 259.379 449.353 253.738 451.518C239.679 456.916 225.447 460.815 210.859 464.478C207.504 465.321 204.143 465.143 200.838 465.924C190.092 468.461 179.28 471.46 168.775 474.885C163.307 476.668 159.044 479.95 154.442 483.22C153.115 484.163 151.508 484.868 150.106 485.725C148.673 486.601 148.128 487.847 146.42 488.11C144.808 488.358 142.428 489.54 141 490.254" stroke="white" stroke-width="10" stroke-linecap="round"/>
</svg>
